<svg width="40" height="35" viewBox="0 0 40 35" fill="none" xmlns="http://www.w3.org/2000/svg">
<path d="M19.0879 8.84758L6.53646 20.4086V32.8862C6.53646 33.2093 6.65122 33.5192 6.8555 33.7476C7.05977 33.9761 7.33682 34.1044 7.62571 34.1044L15.2545 34.0823C15.5424 34.0807 15.8181 33.9517 16.0212 33.7234C16.2243 33.4951 16.3383 33.1862 16.3383 32.8642V25.5773C16.3383 25.2543 16.453 24.9444 16.6573 24.716C16.8616 24.4875 17.1386 24.3592 17.4275 24.3592H21.7845C22.0734 24.3592 22.3504 24.4875 22.5547 24.716C22.759 24.9444 22.8737 25.2543 22.8737 25.5773V32.8588C22.8733 33.0191 22.9011 33.1779 22.9556 33.3262C23.0102 33.4744 23.0903 33.6091 23.1915 33.7227C23.2927 33.8362 23.413 33.9263 23.5453 33.9877C23.6777 34.0492 23.8196 34.0808 23.963 34.0808L31.589 34.1044C31.8779 34.1044 32.1549 33.9761 32.3592 33.7476C32.5635 33.5192 32.6782 33.2093 32.6782 32.8862V20.4002L20.1295 8.84758C19.982 8.71459 19.7982 8.64207 19.6087 8.64207C19.4192 8.64207 19.2354 8.71459 19.0879 8.84758ZM38.9141 16.7054L33.2229 11.459V0.913613C33.2229 0.671307 33.1368 0.438927 32.9836 0.267591C32.8304 0.0962555 32.6226 0 32.4059 0H28.5936C28.3769 0 28.1691 0.0962555 28.0159 0.267591C27.8627 0.438927 27.7767 0.671307 27.7767 0.913613V6.44173L21.6817 0.833672C21.0968 0.295386 20.3628 0.00107604 19.6053 0.00107604C18.8478 0.00107604 18.1139 0.295386 17.5289 0.833672L0.296477 16.7054C0.213754 16.7819 0.145314 16.8758 0.0950675 16.9819C0.0448208 17.0879 0.0137522 17.204 0.00363681 17.3235C-0.00647857 17.443 0.00455756 17.5635 0.0361146 17.6783C0.0676717 17.793 0.119131 17.8996 0.187553 17.9921L1.92353 20.3522C1.99177 20.445 2.07569 20.5219 2.17051 20.5783C2.26533 20.6348 2.36918 20.6698 2.47611 20.6813C2.58304 20.6929 2.69095 20.6807 2.79367 20.6455C2.89639 20.6103 2.99189 20.5529 3.07472 20.4763L19.0879 5.72607C19.2354 5.59308 19.4192 5.52056 19.6087 5.52056C19.7982 5.52056 19.982 5.59308 20.1295 5.72607L36.1434 20.4763C36.2261 20.5529 36.3214 20.6104 36.424 20.6457C36.5266 20.681 36.6344 20.6933 36.7412 20.682C36.8481 20.6707 36.9519 20.636 37.0467 20.5798C37.1415 20.5236 37.2255 20.447 37.2939 20.3545L39.0299 17.9944C39.0982 17.9014 39.1495 17.7942 39.1807 17.679C39.2118 17.5637 39.2224 17.4428 39.2116 17.323C39.2008 17.2032 39.169 17.087 39.118 16.981C39.0669 16.875 38.9977 16.7814 38.9141 16.7054Z" fill="#A9A9A9"/>
</svg>
