<svg width="43" height="43" viewBox="0 0 43 43" fill="none" xmlns="http://www.w3.org/2000/svg">
<g filter="url(#filter0_d_108_121)">
<path d="M38.5156 19.0483L26.8484 34.3582C25.8066 35.7252 24.001 34.7683 24.001 32.809V24.0604H14.5561C13.6324 24.0604 12.8893 23.0853 12.8893 21.8733V13.1248C12.8893 11.9127 13.6324 10.9376 14.5561 10.9376H24.001V2.18907C24.001 0.238878 25.7997 -0.727107 26.8484 0.639853L38.5156 15.9498C39.1615 16.8064 39.1615 18.1916 38.5156 19.0483ZM17.334 33.9026V30.2573C17.334 29.6559 16.959 29.1638 16.5006 29.1638H10.667C9.43777 29.1638 8.44466 27.8606 8.44466 26.2476V8.75048C8.44466 7.13747 9.43777 5.8343 10.667 5.8343H16.5006C16.959 5.8343 17.334 5.3422 17.334 4.74073V1.09551C17.334 0.494044 16.959 0.00193823 16.5006 0.00193823H10.667C6.98626 0.00193823 4 3.92056 4 8.75048V26.2476C4 31.0775 6.98626 34.9961 10.667 34.9961H16.5006C16.959 34.9961 17.334 34.504 17.334 33.9026Z" fill="#D9D9D9"/>
</g>
<defs>
<filter id="filter0_d_108_121" x="0" y="0" width="43" height="43" filterUnits="userSpaceOnUse" color-interpolation-filters="sRGB">
<feFlood flood-opacity="0" result="BackgroundImageFix"/>
<feColorMatrix in="SourceAlpha" type="matrix" values="0 0 0 0 0 0 0 0 0 0 0 0 0 0 0 0 0 0 127 0" result="hardAlpha"/>
<feOffset dy="4"/>
<feGaussianBlur stdDeviation="2"/>
<feComposite in2="hardAlpha" operator="out"/>
<feColorMatrix type="matrix" values="0 0 0 0 0 0 0 0 0 0 0 0 0 0 0 0 0 0 0.25 0"/>
<feBlend mode="normal" in2="BackgroundImageFix" result="effect1_dropShadow_108_121"/>
<feBlend mode="normal" in="SourceGraphic" in2="effect1_dropShadow_108_121" result="shape"/>
</filter>
</defs>
</svg>
