<svg width="40" height="39" viewBox="0 0 40 39" fill="none" xmlns="http://www.w3.org/2000/svg">
<path d="M20 0C15.1674 0 11.25 4.29426 11.25 9.59186C11.25 13.8747 16.9688 21.6807 19.1597 24.5141C19.6035 25.0881 20.3972 25.0881 20.8403 24.5141C23.0312 21.6807 28.75 13.8747 28.75 9.59186C28.75 4.29426 24.8326 0 20 0ZM20 12.7892C18.3889 12.7892 17.0833 11.358 17.0833 9.59186C17.0833 7.82574 18.3889 6.39458 20 6.39458C21.6111 6.39458 22.9167 7.82574 22.9167 9.59186C22.9167 11.358 21.6111 12.7892 20 12.7892ZM1.39722 16.4394C0.984846 16.6202 0.631341 16.9323 0.382298 17.3354C0.133256 17.7385 9.87644e-05 18.2142 0 18.7011L0 37.7569C0 38.6187 0.79375 39.2079 1.52361 38.8882L11.1111 34.1044V16.361C10.4972 15.1445 9.99514 13.96 9.63542 12.8272L1.39722 16.4394ZM20 27.3802C19.0229 27.3802 18.0986 26.9097 17.4646 26.0891C16.0993 24.323 14.6472 22.3117 13.3333 20.2487V34.1036L26.6667 38.9757V20.2495C25.3528 22.3117 23.9014 24.3237 22.5354 26.0899C21.9014 26.9097 20.9771 27.3802 20 27.3802ZM38.4764 12.2685L28.8889 17.0522V38.9765L38.6028 34.7172C39.0152 34.5365 39.3688 34.2244 39.6178 33.8213C39.8669 33.4181 40 32.9424 40 32.4555V13.3997C40 12.5379 39.2063 11.9487 38.4764 12.2685Z" fill="#A9A9A9"/>
</svg>
