<svg width="40" height="32" viewBox="0 0 40 32" fill="none" xmlns="http://www.w3.org/2000/svg">
<path d="M38.1603 21.5254C38.3228 20.5438 38.3228 19.5413 38.1603 18.5597L39.7729 17.5224C39.9605 17.4041 40.0417 17.1604 39.9792 16.9307C39.5604 15.427 38.8416 14.0625 37.904 12.9347C37.7602 12.7607 37.529 12.7189 37.3414 12.8373L35.7288 13.8745C35.0474 13.2271 34.2661 12.7259 33.4223 12.3917V10.3171C33.4223 10.0805 33.2723 9.8716 33.066 9.82287C31.6721 9.47479 30.2532 9.48871 28.9281 9.82287C28.7218 9.8716 28.5718 10.0805 28.5718 10.3171V12.3917C27.7279 12.7259 26.9466 13.2271 26.2653 13.8745L24.6526 12.8373C24.4713 12.7189 24.2338 12.7607 24.09 12.9347C23.1524 14.0625 22.4336 15.427 22.0148 16.9307C21.9523 17.1604 22.0398 17.4041 22.2211 17.5224L23.8338 18.5597C23.6712 19.5413 23.6712 20.5438 23.8338 21.5254L22.2211 22.5627C22.0336 22.681 21.9523 22.9247 22.0148 23.1544C22.4336 24.6581 23.1524 26.0156 24.09 27.1504C24.2338 27.3244 24.4651 27.3662 24.6526 27.2478L26.2653 26.2106C26.9466 26.858 27.7279 27.3592 28.5718 27.6934V29.768C28.5718 30.0047 28.7218 30.2135 28.9281 30.2622C30.3219 30.6103 31.7408 30.5964 33.066 30.2622C33.2723 30.2135 33.4223 30.0047 33.4223 29.768V27.6934C34.2661 27.3592 35.0474 26.858 35.7288 26.2106L37.3414 27.2478C37.5227 27.3662 37.7602 27.3244 37.904 27.1504C38.8416 26.0226 39.5604 24.6581 39.9792 23.1544C40.0417 22.9247 39.9542 22.681 39.7729 22.5627L38.1603 21.5254ZM31.0033 23.4189C29.3281 23.4189 27.9717 21.9013 27.9717 20.0426C27.9717 18.1838 29.3343 16.6662 31.0033 16.6662C32.6722 16.6662 34.0348 18.1838 34.0348 20.0426C34.0348 21.9013 32.6784 23.4189 31.0033 23.4189ZM6.00063 13.3594C8.20712 13.3594 10.0011 11.3614 10.0011 8.90393C10.0011 6.44648 8.20712 4.44849 6.00063 4.44849C3.79415 4.44849 2.00021 6.44648 2.00021 8.90393C2.00021 11.3614 3.79415 13.3594 6.00063 13.3594ZM20.0021 15.5871C20.1209 15.5871 20.2334 15.5523 20.3521 15.5453C20.871 14.0347 21.6335 12.6145 22.6211 11.424C23.0837 10.8671 23.74 10.5469 24.4276 10.5469C24.8589 10.5469 25.2839 10.6722 25.6527 10.9158L26.1465 11.2361C26.1965 11.2013 26.2465 11.1734 26.2965 11.1386C26.7341 10.1222 26.9966 8.99443 26.9966 7.79703C26.9966 3.48778 23.865 0 19.9959 0C16.1267 0 13.0014 3.48082 13.0014 7.79007C13.0014 12.0993 16.133 15.5871 20.0021 15.5871ZM26.5778 29.1275C26.434 29.0439 26.2903 28.9465 26.1528 28.856C25.6402 29.1901 25.1964 29.5382 24.4338 29.5382C23.7525 29.5382 23.0962 29.218 22.6274 28.6611C21.4835 27.2827 20.6084 25.6049 20.1146 23.8158C19.4458 21.414 21.671 20.3558 21.7273 20.3141C21.721 20.1331 21.721 19.952 21.7273 19.771L21.2335 19.4508C20.996 19.2977 20.7959 19.1027 20.6209 18.8869C20.4147 18.9008 20.2146 18.9287 20.0084 18.9287C18.4707 18.9287 17.033 18.511 15.7267 17.8148H15.2079C11.2262 17.8148 8.00084 21.407 8.00084 25.8346V27.8396C8.00084 29.6844 9.34474 31.1812 11.0012 31.1812H26.9653C26.7341 30.7635 26.5778 30.2901 26.5778 29.768V29.1275ZM10.8199 16.882C10.0948 16.0814 9.10096 15.5871 8.00084 15.5871H4.00042C1.79394 15.5871 0 17.5851 0 20.0426V22.2703C0 23.5025 0.893844 24.498 2.00021 24.498H6.1194C6.51319 21.1982 8.30088 18.4205 10.8199 16.882Z" fill="#A9A9A9"/>
</svg>
