<svg width="50" height="49" viewBox="0 0 50 49" fill="none" xmlns="http://www.w3.org/2000/svg">
<path d="M25 24.3603C32.8906 24.3603 39.2857 18.9078 39.2857 12.1801C39.2857 5.45252 32.8906 0 25 0C17.1094 0 10.7143 5.45252 10.7143 12.1801C10.7143 18.9078 17.1094 24.3603 25 24.3603ZM35 27.4053H33.1362C30.6585 28.3759 27.9018 28.9278 25 28.9278C22.0982 28.9278 19.3527 28.3759 16.8638 27.4053H15C6.71875 27.4053 0 33.1338 0 40.1945V44.153C0 46.6747 2.39955 48.7206 5.35714 48.7206H44.6429C47.6004 48.7206 50 46.6747 50 44.153V40.1945C50 33.1338 43.2812 27.4053 35 27.4053Z" fill="#D9D9D9"/>
</svg>
